# xmcd
#
# Track frame offsets:
#	150
#	20134
#	28153
#	40905
#	50185
#	65301
#	86613
#	97290
#	114642
#	126844
#	148977
#	158659
#	168344
#	187275
#	198130
#
# Disc length: 2746 seconds
#
# Revision: 0
# Processed by: cddbd v1.5.2PL0 Copyright (c) Steve Scherf et al.
# Submitted via: dBpowerAMP V4.0
#
DISCID=e20ab80f
DTITLE=Duo Aurezwicker - Bei mir bisch Du schee
DYEAR=1900
DGENRE=
TTITLE0=Muggaseggele
TTITLE1=Heimat
TTITLE2=Das Tüpfel auf dem i
TTITLE3=Geschtern no
TTITLE4=Kleine Prinzessin
TTITLE5=Leffmeffzgapoff
TTITLE6=Moral
TTITLE7=Es empfiehlt sich das städtische Krankenhaus
TTITLE8=Schwarzwurscht
TTITLE9=Schwäbische Tarantella
TTITLE10=Weil du mei Schätzle bischt
TTITLE11=Hoch liebe Brüder (Viva la feria)
TTITLE12=Bildergalerie
TTITLE13=Bei mir bisch de schee
TTITLE14=Abschied
EXTD=
EXTT0=
EXTT1=
EXTT2=
EXTT3=
EXTT4=
EXTT5=
EXTT6=
EXTT7=
EXTT8=
EXTT9=
EXTT10=
EXTT11=
EXTT12=
EXTT13=
EXTT14=
PLAYORDER=
